<?xml version="1.0" encoding="UTF-8" standalone="no"?>
<!DOCTYPE svg PUBLIC "-//W3C//DTD SVG 1.1//EN"
 "http://www.w3.org/Graphics/SVG/1.1/DTD/svg11.dtd">
<!-- Generated by graphviz version 2.40.1 (20161225.0304)
 -->
<!-- Title: G Pages: 1 -->
<svg width="968pt" height="367pt"
 viewBox="0.00 0.00 968.00 367.22" xmlns="http://www.w3.org/2000/svg" xmlns:xlink="http://www.w3.org/1999/xlink">
<g id="graph0" class="graph" transform="scale(1 1) rotate(0) translate(4 363.2203)">
<title>G</title>
<polygon fill="#ffffff" stroke="transparent" points="-4,4 -4,-363.2203 964,-363.2203 964,4 -4,4"/>
<g id="clust1" class="cluster">
<title>cluster_G</title>
<path fill="#808080" fill-opacity="0.094118" stroke="#000000" d="M20,-8C20,-8 940,-8 940,-8 946,-8 952,-14 952,-20 952,-20 952,-339.2203 952,-339.2203 952,-345.2203 946,-351.2203 940,-351.2203 940,-351.2203 20,-351.2203 20,-351.2203 14,-351.2203 8,-345.2203 8,-339.2203 8,-339.2203 8,-20 8,-20 8,-14 14,-8 20,-8"/>
</g>
<g id="clust2" class="cluster">
<title>cluster_detection_model_debug</title>
<path fill="#808080" fill-opacity="0.094118" stroke="#000000" d="M28,-16C28,-16 932,-16 932,-16 938,-16 944,-22 944,-28 944,-28 944,-287.2203 944,-287.2203 944,-293.2203 938,-299.2203 932,-299.2203 932,-299.2203 28,-299.2203 28,-299.2203 22,-299.2203 16,-293.2203 16,-287.2203 16,-287.2203 16,-28 16,-28 16,-22 22,-16 28,-16"/>
<text text-anchor="middle" x="480" y="-284.0203" font-family="Times,serif" font-size="14.00" fill="#000000">detection_model_debug</text>
</g>
<g id="clust3" class="cluster">
<title>cluster_detection_model_debug__DetectionDemo</title>
<path fill="#808080" fill-opacity="0.094118" stroke="#000000" d="M36,-24C36,-24 924,-24 924,-24 930,-24 936,-30 936,-36 936,-36 936,-194.4802 936,-194.4802 936,-200.4802 930,-206.4802 924,-206.4802 924,-206.4802 36,-206.4802 36,-206.4802 30,-206.4802 24,-200.4802 24,-194.4802 24,-194.4802 24,-36 24,-36 24,-30 30,-24 36,-24"/>
<text text-anchor="middle" x="480" y="-191.2802" font-family="Times,serif" font-size="14.00" fill="#000000">detection_model_debug.DetectionDemo</text>
</g>
<!-- detection_model_debug -->
<g id="node1" class="node">
<title>detection_model_debug</title>
<ellipse fill="#ffffff" fill-opacity="0.698039" stroke="#000000" cx="680" cy="-325.2203" rx="95.5831" ry="18"/>
<text text-anchor="middle" x="680" y="-321.5203" font-family="Times,serif" font-size="14.00" fill="#000000">detection_model_debug</text>
</g>
<!-- detection_model_debug__DetectionDemo -->
<g id="node2" class="node">
<title>detection_model_debug__DetectionDemo</title>
<ellipse fill="#fecccc" fill-opacity="0.698039" stroke="#000000" cx="601" cy="-241.3503" rx="140.0143" ry="26.7407"/>
<text text-anchor="middle" x="601" y="-245.1503" font-family="Times,serif" font-size="14.00" fill="#000000">DetectionDemo</text>
<text text-anchor="middle" x="601" y="-230.1503" font-family="Times,serif" font-size="14.00" fill="#000000">(./detection_model_debug.py:37)</text>
</g>
<!-- detection_model_debug&#45;&gt;detection_model_debug__DetectionDemo -->
<g id="edge1" class="edge">
<title>detection_model_debug&#45;&gt;detection_model_debug__DetectionDemo</title>
<path fill="none" stroke="#000000" d="M663.2461,-307.4337C654.4877,-298.1353 643.466,-286.4341 633.1399,-275.4715"/>
<polygon fill="#000000" stroke="#000000" points="635.5429,-272.918 626.1386,-268.0386 630.4474,-277.7177 635.5429,-272.918"/>
</g>
<!-- detection_model_debug__bb_image_draw -->
<g id="node3" class="node">
<title>detection_model_debug__bb_image_draw</title>
<ellipse fill="#fecccc" fill-opacity="0.698039" stroke="#000000" cx="298" cy="-241.3503" rx="144.9138" ry="26.7407"/>
<text text-anchor="middle" x="298" y="-245.1503" font-family="Times,serif" font-size="14.00" fill="#000000">bb_image_draw</text>
<text text-anchor="middle" x="298" y="-230.1503" font-family="Times,serif" font-size="14.00" fill="#000000">(./detection_model_debug.py:168)</text>
</g>
<!-- detection_model_debug&#45;&gt;detection_model_debug__bb_image_draw -->
<g id="edge2" class="edge">
<title>detection_model_debug&#45;&gt;detection_model_debug__bb_image_draw</title>
<path fill="none" stroke="#000000" d="M588.4022,-319.9429C546.4151,-316.2092 496.25,-309.885 452,-299.2203 422.1944,-292.0369 390.3079,-280.7028 363.326,-269.962"/>
<polygon fill="#000000" stroke="#000000" points="364.5813,-266.6943 353.9982,-266.1953 361.9602,-273.1851 364.5813,-266.6943"/>
</g>
<!-- detection_model_debug__DetectionDemo____init__ -->
<g id="node4" class="node">
<title>detection_model_debug__DetectionDemo____init__</title>
<ellipse fill="#ff9999" fill-opacity="0.698039" stroke="#000000" cx="780" cy="-148.6102" rx="140.0143" ry="26.7407"/>
<text text-anchor="middle" x="780" y="-152.4102" font-family="Times,serif" font-size="14.00" fill="#000000">__init__</text>
<text text-anchor="middle" x="780" y="-137.4102" font-family="Times,serif" font-size="14.00" fill="#000000">(./detection_model_debug.py:41)</text>
</g>
<!-- detection_model_debug&#45;&gt;detection_model_debug__DetectionDemo____init__ -->
<g id="edge3" class="edge">
<title>detection_model_debug&#45;&gt;detection_model_debug__DetectionDemo____init__</title>
<path fill="none" stroke="#000000" d="M741.8864,-311.3196C752.517,-307.7808 761.3315,-303.696 765,-299.2203 790.7777,-267.7707 790.8715,-219.3077 786.9135,-185.8928"/>
<polygon fill="#000000" stroke="#000000" points="790.331,-185.0494 785.5135,-175.6132 783.3951,-185.9941 790.331,-185.0494"/>
</g>
<!-- detection_model_debug__DetectionDemo__run_on_pil_image -->
<g id="node8" class="node">
<title>detection_model_debug__DetectionDemo__run_on_pil_image</title>
<ellipse fill="#ff9999" fill-opacity="0.698039" stroke="#000000" cx="475" cy="-148.6102" rx="140.0143" ry="26.7407"/>
<text text-anchor="middle" x="475" y="-152.4102" font-family="Times,serif" font-size="14.00" fill="#000000">run_on_pil_image</text>
<text text-anchor="middle" x="475" y="-137.4102" font-family="Times,serif" font-size="14.00" fill="#000000">(./detection_model_debug.py:63)</text>
</g>
<!-- detection_model_debug&#45;&gt;detection_model_debug__DetectionDemo__run_on_pil_image -->
<g id="edge4" class="edge">
<title>detection_model_debug&#45;&gt;detection_model_debug__DetectionDemo__run_on_pil_image</title>
<path fill="none" stroke="#000000" d="M736.0808,-310.4977C744.9321,-307.0873 752.1233,-303.2623 755,-299.2203 765.9193,-283.8782 767.8798,-228.2178 755,-214.4802 745.5569,-204.4082 644.5036,-209.356 631,-206.4802 600.0401,-199.887 567.0018,-188.335 539.337,-177.2774"/>
<polygon fill="#000000" stroke="#000000" points="540.3698,-173.9192 529.7879,-173.3958 537.7338,-180.4039 540.3698,-173.9192"/>
</g>
<!-- detection_model_debug__bb_image_draw&#45;&gt;detection_model_debug__DetectionDemo__run_on_pil_image -->
<g id="edge8" class="edge">
<title>detection_model_debug__bb_image_draw&#45;&gt;detection_model_debug__DetectionDemo__run_on_pil_image</title>
<path fill="none" stroke="#000000" d="M346.366,-216.0086C368.4142,-204.4564 394.6788,-190.6949 417.7094,-178.6279"/>
<polygon fill="#000000" stroke="#000000" points="419.4591,-181.6625 426.6925,-173.9212 416.2103,-175.4621 419.4591,-181.6625"/>
</g>
<!-- detection_model_debug__DetectionDemo__compute_prediction -->
<g id="node5" class="node">
<title>detection_model_debug__DetectionDemo__compute_prediction</title>
<ellipse fill="#ff9999" fill-opacity="0.698039" stroke="#000000" cx="172" cy="-58.8701" rx="140.0143" ry="26.7407"/>
<text text-anchor="middle" x="172" y="-62.6701" font-family="Times,serif" font-size="14.00" fill="#000000">compute_prediction</text>
<text text-anchor="middle" x="172" y="-47.6701" font-family="Times,serif" font-size="14.00" fill="#000000">(./detection_model_debug.py:78)</text>
</g>
<!-- detection_model_debug__DetectionDemo__filter_by_score -->
<g id="node6" class="node">
<title>detection_model_debug__DetectionDemo__filter_by_score</title>
<ellipse fill="#ff9999" fill-opacity="0.698039" stroke="#000000" cx="475" cy="-58.8701" rx="144.9138" ry="26.7407"/>
<text text-anchor="middle" x="475" y="-62.6701" font-family="Times,serif" font-size="14.00" fill="#000000">filter_by_score</text>
<text text-anchor="middle" x="475" y="-47.6701" font-family="Times,serif" font-size="14.00" fill="#000000">(./detection_model_debug.py:134)</text>
</g>
<!-- detection_model_debug__DetectionDemo__parse_result -->
<g id="node7" class="node">
<title>detection_model_debug__DetectionDemo__parse_result</title>
<ellipse fill="#ff9999" fill-opacity="0.698039" stroke="#000000" cx="783" cy="-58.8701" rx="144.9138" ry="26.7407"/>
<text text-anchor="middle" x="783" y="-62.6701" font-family="Times,serif" font-size="14.00" fill="#000000">parse_result</text>
<text text-anchor="middle" x="783" y="-47.6701" font-family="Times,serif" font-size="14.00" fill="#000000">(./detection_model_debug.py:141)</text>
</g>
<!-- detection_model_debug__DetectionDemo__run_on_pil_image&#45;&gt;detection_model_debug__DetectionDemo__compute_prediction -->
<g id="edge5" class="edge">
<title>detection_model_debug__DetectionDemo__run_on_pil_image&#45;&gt;detection_model_debug__DetectionDemo__compute_prediction</title>
<path fill="none" stroke="#000000" d="M398.5403,-125.965C355.666,-113.2668 302.0648,-97.3916 257.7656,-84.2714"/>
<polygon fill="#000000" stroke="#000000" points="258.7547,-80.9141 248.1724,-81.4302 256.7668,-87.626 258.7547,-80.9141"/>
</g>
<!-- detection_model_debug__DetectionDemo__run_on_pil_image&#45;&gt;detection_model_debug__DetectionDemo__filter_by_score -->
<g id="edge6" class="edge">
<title>detection_model_debug__DetectionDemo__run_on_pil_image&#45;&gt;detection_model_debug__DetectionDemo__filter_by_score</title>
<path fill="none" stroke="#000000" d="M475,-121.6852C475,-113.6102 475,-104.607 475,-95.9961"/>
<polygon fill="#000000" stroke="#000000" points="478.5001,-95.776 475,-85.776 471.5001,-95.7761 478.5001,-95.776"/>
</g>
<!-- detection_model_debug__DetectionDemo__run_on_pil_image&#45;&gt;detection_model_debug__DetectionDemo__parse_result -->
<g id="edge7" class="edge">
<title>detection_model_debug__DetectionDemo__run_on_pil_image&#45;&gt;detection_model_debug__DetectionDemo__parse_result</title>
<path fill="none" stroke="#000000" d="M552.3238,-126.0808C595.8193,-113.4078 650.2708,-97.5426 695.3463,-84.4092"/>
<polygon fill="#000000" stroke="#000000" points="696.4874,-87.7223 705.1091,-81.5647 694.5293,-81.0018 696.4874,-87.7223"/>
</g>
</g>
</svg>

